# xmcd
#
# Track frame offsets: 
#        150
#        16513
#        32187
#        52094
#        68918
#        82579
#        106084
#        127210
#
# Disc length: 2046 seconds
#
# Revision: 0
# Processed by: cddbd v1.5.1PL2 Copyright (c) Steve Scherf et al.
# Submitted via: ExactAudioCopy v0.90b4
#
DISCID=5d07fc08
DTITLE=Marvin Banks - R and B Classics
DYEAR=2002
DGENRE=R&B
TTITLE0=Hold On I'm Coming
TTITLE1=Soul Man
TTITLE2=Love And Happiness
TTITLE3=Unchain My Heart
TTITLE4=I Feel Good
TTITLE5=What's Going On
TTITLE6=What You Won't Do For Love
TTITLE7=Crosscut Saw
EXTD=
EXTT0=
EXTT1=
EXTT2=
EXTT3=
EXTT4=
EXTT5=
EXTT6=
EXTT7=
PLAYORDER=
